<svg width="167" height="56" viewBox="0 0 167 56" fill="none" xmlns="http://www.w3.org/2000/svg">
<rect x="0.5" y="0.5" width="166" height="55" rx="6.5" fill="#0C0D10"/>
<rect x="0.5" y="0.5" width="166" height="55" rx="6.5" stroke="#A6A6A6"/>
<path d="M113.456 26.8815V30.0889H111.458V32.1923H113.456V39.3393C113.456 41.7797 114.553 42.7559 117.314 42.7559C117.8 42.7559 118.262 42.6978 118.666 42.6281V40.5479C118.319 40.5828 118.1 40.606 117.719 40.606C116.483 40.606 115.94 40.025 115.94 38.7001V32.1923H118.666V30.0889H115.94V26.8815H113.456Z" fill="white"/>
<path d="M125.699 42.9302C129.373 42.9302 131.625 40.4549 131.625 36.3527C131.625 32.2737 129.361 29.7868 125.699 29.7868C122.026 29.7868 119.761 32.2737 119.761 36.3527C119.761 40.4549 122.014 42.9302 125.699 42.9302ZM125.699 40.7106C123.539 40.7106 122.326 39.1185 122.326 36.3527C122.326 33.6101 123.539 32.0064 125.699 32.0064C127.848 32.0064 129.072 33.6101 129.072 36.3527C129.072 39.1069 127.848 40.7106 125.699 40.7106Z" fill="white"/>
<path d="M133.553 42.6862H136.036V35.2138C136.036 33.4358 137.365 32.2388 139.248 32.2388C139.687 32.2388 140.426 32.3202 140.634 32.3899V29.9262C140.368 29.8565 139.895 29.8216 139.525 29.8216C137.885 29.8216 136.487 30.7281 136.129 31.9715H135.944V30.0308H133.553V42.6862Z" fill="white"/>
<path d="M146.801 31.9134C148.638 31.9134 149.839 33.2034 149.897 35.1906H143.543C143.682 33.215 144.964 31.9134 146.801 31.9134ZM149.885 39.2696C149.423 40.2574 148.395 40.8036 146.893 40.8036C144.906 40.8036 143.624 39.3974 143.543 37.1778V37.0383H152.427V36.1667C152.427 32.1923 150.313 29.7868 146.812 29.7868C143.266 29.7868 141.013 32.355 141.013 36.3992C141.013 40.4433 143.22 42.9302 146.824 42.9302C149.7 42.9302 151.71 41.5357 152.276 39.2696H149.885Z" fill="white"/>
<path d="M97.1685 38.0128C97.3601 41.1203 99.9343 43.1078 103.766 43.1078C107.861 43.1078 110.423 41.024 110.423 37.6996C110.423 35.0858 108.962 33.6404 105.418 32.8093L103.514 32.3396C101.263 31.8096 100.353 31.099 100.353 29.8583C100.353 28.2925 101.766 27.2687 103.885 27.2687C105.897 27.2687 107.286 28.2684 107.537 29.8704H110.147C109.992 26.9435 107.43 24.8838 103.921 24.8838C100.15 24.8838 97.6355 26.9435 97.6355 30.039C97.6355 32.5925 99.0603 34.1102 102.185 34.8449L104.412 35.387C106.699 35.929 107.705 36.7239 107.705 38.0489C107.705 39.5906 106.124 40.7108 103.969 40.7108C101.658 40.7108 100.054 39.6629 99.8266 38.0128H97.1685Z" fill="white"/>
<path d="M71.4403 29.8216C69.7306 29.8216 68.252 30.6816 67.4895 32.1226H67.3047V30.0308H64.9135V46.893H67.3971V40.7687H67.5935C68.252 42.1051 69.6728 42.8954 71.4634 42.8954C74.6402 42.8954 76.6618 40.3736 76.6618 36.3527C76.6618 32.3318 74.6402 29.8216 71.4403 29.8216ZM70.7356 40.6525C68.6563 40.6525 67.3509 39.0023 67.3509 36.3643C67.3509 33.7147 68.6563 32.0645 70.7472 32.0645C72.8496 32.0645 74.1088 33.6798 74.1088 36.3527C74.1088 39.0372 72.8496 40.6525 70.7356 40.6525Z" fill="white"/>
<path d="M85.3525 29.8216C83.6428 29.8216 82.1642 30.6816 81.4017 32.1226H81.2169V30.0308H78.8257V46.893H81.3093V40.7687H81.5057C82.1642 42.1051 83.5851 42.8954 85.3756 42.8954C88.5524 42.8954 90.574 40.3736 90.574 36.3527C90.574 32.3318 88.5524 29.8216 85.3525 29.8216ZM84.6478 40.6525C82.5685 40.6525 81.2631 39.0023 81.2631 36.3643C81.2631 33.7147 82.5685 32.0645 84.6594 32.0645C86.7618 32.0645 88.021 33.6798 88.021 36.3527C88.021 39.0372 86.7618 40.6525 84.6478 40.6525Z" fill="white"/>
<path d="M60.4573 42.6862H63.307L57.0689 25.3054H54.1834L47.9453 42.6862H50.6992L52.2916 38.073H58.8769L60.4573 42.6862ZM55.4884 28.4611H55.692L58.1944 35.8085H52.9741L55.4884 28.4611Z" fill="white"/>
<path d="M49.6172 12.1953V20.5799H52.6265C55.1101 20.5799 56.5483 19.0401 56.5483 16.3614C56.5483 13.7234 55.0986 12.1953 52.6265 12.1953H49.6172ZM50.911 13.3806H52.4821C54.2091 13.3806 55.2314 14.4846 55.2314 16.3789C55.2314 18.3021 54.2264 19.3945 52.4821 19.3945H50.911V13.3806Z" fill="white"/>
<path d="M60.9531 20.7019C62.7898 20.7019 63.9162 19.4643 63.9162 17.4131C63.9162 15.3736 62.7841 14.1302 60.9531 14.1302C59.1163 14.1302 57.9842 15.3736 57.9842 17.4131C57.9842 19.4643 59.1106 20.7019 60.9531 20.7019ZM60.9531 19.5921C59.873 19.5921 59.2665 18.796 59.2665 17.4131C59.2665 16.0418 59.873 15.24 60.9531 15.24C62.0274 15.24 62.6397 16.0418 62.6397 17.4131C62.6397 18.7902 62.0274 19.5921 60.9531 19.5921Z" fill="white"/>
<path d="M73.5077 14.2522H72.2659L71.1453 19.0808H71.0472L69.7533 14.2522H68.5635L67.2697 19.0808H67.1773L66.0509 14.2522H64.7918L66.5246 20.5799H67.8011L69.0949 15.9198H69.1931L70.4927 20.5799H71.7807L73.5077 14.2522Z" fill="white"/>
<path d="M74.9378 20.5799H76.1797V16.8786C76.1797 15.8908 76.763 15.2749 77.6814 15.2749C78.5998 15.2749 79.0388 15.7804 79.0388 16.7972V20.5799H80.2806V16.4834C80.2806 14.9785 79.5066 14.1302 78.1031 14.1302C77.1558 14.1302 76.532 14.5543 76.2259 15.2574H76.1335V14.2522H74.9378V20.5799Z" fill="white"/>
<path d="M82.2363 20.5799H83.4782V11.7827H82.2363V20.5799Z" fill="white"/>
<path d="M88.1486 20.7019C89.9854 20.7019 91.1117 19.4643 91.1117 17.4131C91.1117 15.3736 89.9796 14.1302 88.1486 14.1302C86.3119 14.1302 85.1798 15.3736 85.1798 17.4131C85.1798 19.4643 86.3061 20.7019 88.1486 20.7019ZM88.1486 19.5921C87.0685 19.5921 86.462 18.796 86.462 17.4131C86.462 16.0418 87.0685 15.24 88.1486 15.24C89.2229 15.24 89.8352 16.0418 89.8352 17.4131C89.8352 18.7902 89.2229 19.5921 88.1486 19.5921Z" fill="white"/>
<path d="M94.8118 19.6328C94.136 19.6328 93.645 19.3016 93.645 18.7321C93.645 18.1743 94.0378 17.878 94.9042 17.8199L96.4406 17.7211V18.2499C96.4406 19.0343 95.7475 19.6328 94.8118 19.6328ZM94.4941 20.6845C95.32 20.6845 96.0074 20.3242 96.3828 19.6909H96.481V20.5799H97.6766V16.2568C97.6766 14.9204 96.7871 14.1302 95.2103 14.1302C93.7836 14.1302 92.7671 14.8274 92.64 15.914H93.8414C93.98 15.4666 94.4594 15.2109 95.1525 15.2109C96.0016 15.2109 96.4406 15.5886 96.4406 16.2568V16.803L94.7367 16.9018C93.2407 16.9948 92.3974 17.6514 92.3974 18.7902C92.3974 19.9465 93.2811 20.6845 94.4941 20.6845Z" fill="white"/>
<path d="M101.891 20.6845C102.757 20.6845 103.491 20.2719 103.866 19.5805H103.964V20.5799H105.154V11.7827H103.912V15.2574H103.82C103.479 14.5602 102.751 14.1476 101.891 14.1476C100.302 14.1476 99.28 15.4143 99.28 17.4131C99.28 19.4178 100.291 20.6845 101.891 20.6845ZM102.243 15.269C103.283 15.269 103.935 16.1 103.935 17.4189C103.935 18.7438 103.289 19.563 102.243 19.563C101.192 19.563 100.562 18.7554 100.562 17.4131C100.562 16.0825 101.198 15.269 102.243 15.269Z" fill="white"/>
<path d="M113.207 20.7019C115.044 20.7019 116.17 19.4643 116.17 17.4131C116.17 15.3736 115.038 14.1302 113.207 14.1302C111.37 14.1302 110.238 15.3736 110.238 17.4131C110.238 19.4643 111.365 20.7019 113.207 20.7019ZM113.207 19.5921C112.127 19.5921 111.52 18.796 111.52 17.4131C111.52 16.0418 112.127 15.24 113.207 15.24C114.281 15.24 114.894 16.0418 114.894 17.4131C114.894 18.7902 114.281 19.5921 113.207 19.5921Z" fill="white"/>
<path d="M117.814 20.5799H119.056V16.8786C119.056 15.8908 119.639 15.2749 120.558 15.2749C121.476 15.2749 121.915 15.7804 121.915 16.7972V20.5799H123.157V16.4834C123.157 14.9785 122.383 14.1302 120.979 14.1302C120.032 14.1302 119.408 14.5543 119.102 15.2574H119.01V14.2522H117.814V20.5799Z" fill="white"/>
<path d="M128.876 12.6775V14.2813H127.877V15.333H128.876V18.9064C128.876 20.1267 129.425 20.6147 130.805 20.6147C131.048 20.6147 131.279 20.5857 131.481 20.5508V19.5107C131.308 19.5282 131.198 19.5398 131.007 19.5398C130.389 19.5398 130.118 19.2493 130.118 18.5869V15.333H131.481V14.2813H130.118V12.6775H128.876Z" fill="white"/>
<path d="M133.148 20.5799H134.39V16.8844C134.39 15.9256 134.956 15.2807 135.972 15.2807C136.85 15.2807 137.318 15.792 137.318 16.803V20.5799H138.56V16.4951C138.56 14.9901 137.734 14.136 136.394 14.136C135.447 14.136 134.783 14.5602 134.476 15.269H134.378V11.7827H133.148V20.5799Z" fill="white"/>
<path d="M143.04 15.1935C143.958 15.1935 144.559 15.8385 144.588 16.8321H141.411C141.48 15.8443 142.121 15.1935 143.04 15.1935ZM144.582 18.8716C144.351 19.3655 143.837 19.6386 143.086 19.6386C142.093 19.6386 141.451 18.9355 141.411 17.8257V17.756H145.853V17.3202C145.853 15.333 144.796 14.1302 143.046 14.1302C141.272 14.1302 140.146 15.4143 140.146 17.4364C140.146 19.4584 141.249 20.7019 143.051 20.7019C144.49 20.7019 145.495 20.0046 145.778 18.8716H144.582Z" fill="white"/>
<path d="M34.4679 28.421C34.4981 26.0676 35.7544 23.8408 37.7475 22.6081C36.4901 20.8017 34.3842 19.6563 32.1931 19.5874C29.8562 19.3406 27.5906 20.9941 26.3997 20.9941C25.1858 20.9941 23.3523 19.6119 21.3779 19.6527C18.8044 19.7364 16.4052 21.2083 15.1531 23.4717C12.4616 28.1595 14.4692 35.049 17.0474 38.8383C18.3374 40.6937 19.8449 42.7664 21.8176 42.6929C23.7479 42.6123 24.4688 41.4546 26.7989 41.4546C29.1073 41.4546 29.7837 42.6929 31.7964 42.6461C33.8677 42.6123 35.1727 40.7824 36.4174 38.9093C37.3442 37.5872 38.0574 36.126 38.5305 34.5798C36.0963 33.5441 34.4708 31.0798 34.4679 28.421Z" fill="white"/>
<path d="M30.6664 17.0954C31.7957 15.7315 32.3521 13.9784 32.2174 12.2085C30.492 12.3908 28.8981 13.2204 27.7535 14.5319C26.6342 15.8134 26.0517 17.5356 26.1619 19.2379C27.8879 19.2558 29.5848 18.4487 30.6664 17.0954Z" fill="white"/>
</svg>
