<svg width="189" height="56" viewBox="0 0 189 56" fill="none" xmlns="http://www.w3.org/2000/svg">
<rect x="0.5" y="0.5" width="188" height="55" rx="4.5" fill="black"/>
<rect x="0.5" y="0.5" width="188" height="55" rx="4.5" stroke="#A6A6A6"/>
<path d="M149.706 41.9999H152.318V24.4977H149.706V41.9999ZM173.235 30.8027L170.241 38.3906H170.151L167.043 30.8027H164.229L168.891 41.4077L166.233 47.3073H168.957L176.14 30.8027H173.235ZM158.419 40.012C157.565 40.012 156.371 39.5838 156.371 38.5257C156.371 37.1748 157.858 36.6569 159.14 36.6569C160.288 36.6569 160.83 36.9042 161.527 37.2421C161.324 38.8636 159.928 40.012 158.419 40.012ZM158.736 30.4198C156.844 30.4198 154.886 31.2532 154.075 33.0995L156.393 34.0675C156.889 33.0995 157.812 32.7845 158.78 32.7845C160.131 32.7845 161.505 33.5944 161.527 35.036V35.2159C161.054 34.9457 160.04 34.5406 158.803 34.5406C156.302 34.5406 153.759 35.9137 153.759 38.4807C153.759 40.8225 155.808 42.3313 158.104 42.3313C159.86 42.3313 160.83 41.5432 161.436 40.6196H161.527V41.9715H164.05V35.2607C164.05 32.1534 161.729 30.4198 158.736 30.4198ZM142.591 32.9332H138.875V26.9341H142.591C144.544 26.9341 145.653 28.5507 145.653 29.9336C145.653 31.2899 144.544 32.9332 142.591 32.9332ZM142.524 24.4977H136.264V41.9999H138.875V35.3691H142.524C145.419 35.3691 148.265 33.2734 148.265 29.9336C148.265 26.5944 145.419 24.4977 142.524 24.4977ZM108.39 40.0153C106.585 40.0153 105.074 38.5037 105.074 36.4294C105.074 34.3311 106.585 32.7981 108.39 32.7981C110.171 32.7981 111.57 34.3311 111.57 36.4294C111.57 38.5037 110.171 40.0153 108.39 40.0153ZM111.389 31.7827H111.299C110.713 31.0837 109.585 30.4521 108.164 30.4521C105.187 30.4521 102.458 33.0689 102.458 36.4294C102.458 39.767 105.187 42.3608 108.164 42.3608C109.585 42.3608 110.713 41.7291 111.299 41.0079H111.389V41.8642C111.389 44.1431 110.171 45.3605 108.209 45.3605C106.608 45.3605 105.616 44.2104 105.209 43.2408L102.932 44.188C103.585 45.7662 105.322 47.7065 108.209 47.7065C111.277 47.7065 113.871 45.9019 113.871 41.5033V30.8131H111.389V31.7827ZM115.676 41.9999H118.291V24.4977H115.676V41.9999ZM122.148 36.226C122.081 33.9253 123.931 32.7528 125.261 32.7528C126.299 32.7528 127.177 33.2717 127.472 34.0156L122.148 36.226ZM130.267 34.2408C129.771 32.9108 128.26 30.4521 125.17 30.4521C122.102 30.4521 119.554 32.8655 119.554 36.4065C119.554 39.7446 122.081 42.3608 125.463 42.3608C128.192 42.3608 129.771 40.6923 130.426 39.7221L128.396 38.3686C127.719 39.3612 126.795 40.0153 125.463 40.0153C124.133 40.0153 123.185 39.4061 122.577 38.2107L130.538 34.9179L130.267 34.2408ZM66.8365 32.2791V34.8052H72.881C72.7005 36.226 72.2269 37.2634 71.5051 37.9853C70.6252 38.8646 69.2492 39.8348 66.8365 39.8348C63.1149 39.8348 60.2055 36.8352 60.2055 33.1137C60.2055 29.3922 63.1149 26.3921 66.8365 26.3921C68.8439 26.3921 70.3096 27.1817 71.3924 28.1967L73.1747 26.4145C71.6631 24.9713 69.6561 23.8661 66.8365 23.8661C61.7384 23.8661 57.4531 28.0163 57.4531 33.1137C57.4531 38.2107 61.7384 42.3608 66.8365 42.3608C69.5878 42.3608 71.6631 41.4585 73.2868 39.767C74.9559 38.098 75.4749 35.7524 75.4749 33.8575C75.4749 33.2717 75.4294 32.7304 75.3392 32.2791H66.8365ZM82.3469 40.0153C80.5422 40.0153 78.9858 38.5266 78.9858 36.4065C78.9858 34.2638 80.5422 32.7981 82.3469 32.7981C84.151 32.7981 85.7074 34.2638 85.7074 36.4065C85.7074 38.5266 84.151 40.0153 82.3469 40.0153ZM82.3469 30.4521C79.053 30.4521 76.3695 32.9556 76.3695 36.4065C76.3695 39.8348 79.053 42.3608 82.3469 42.3608C85.6396 42.3608 88.3237 39.8348 88.3237 36.4065C88.3237 32.9556 85.6396 30.4521 82.3469 30.4521ZM95.3849 40.0153C93.5814 40.0153 92.0244 38.5266 92.0244 36.4065C92.0244 34.2638 93.5814 32.7981 95.3849 32.7981C97.1896 32.7981 98.7454 34.2638 98.7454 36.4065C98.7454 38.5266 97.1896 40.0153 95.3849 40.0153ZM95.3849 30.4521C92.0922 30.4521 89.4087 32.9556 89.4087 36.4065C89.4087 39.8348 92.0922 42.3608 95.3849 42.3608C98.6788 42.3608 101.362 39.8348 101.362 36.4065C101.362 32.9556 98.6788 30.4521 95.3849 30.4521Z" fill="white"/>
<path d="M62.2672 18.5283C61.012 18.5283 59.9324 18.0867 59.062 17.2164C58.1911 16.3455 57.75 15.255 57.75 13.9871C57.75 12.7191 58.1913 11.6306 59.062 10.7578C59.9324 9.88731 61.012 9.44581 62.2672 9.44581C62.9066 9.44581 63.5034 9.55626 64.0738 9.78624C64.6443 10.0162 65.1111 10.3355 65.4787 10.7534L65.5654 10.8521L64.5862 11.831L64.4883 11.7107C64.2446 11.4112 63.9345 11.1785 63.5417 11.0093C63.1503 10.8406 62.7215 10.7627 62.2672 10.7627C61.3831 10.7627 60.6496 11.0629 60.037 11.6732C60.0369 11.6734 60.0366 11.6734 60.0365 11.6735C59.4378 12.2962 59.1369 13.0542 59.1369 13.9871C59.1369 14.9206 59.4382 15.6789 60.0376 16.3017C60.6501 16.9118 61.3836 17.2136 62.2672 17.2136C63.0765 17.2136 63.7458 16.9877 64.272 16.5404H64.2723C64.7622 16.1242 65.0562 15.5616 65.1602 14.8446H62.1272V13.5539H66.471L66.4896 13.6721C66.5252 13.8989 66.5503 14.118 66.5503 14.3283C66.5503 15.5326 66.1832 16.5156 65.4628 17.2388C64.6497 18.1008 63.5803 18.5283 62.2672 18.5283L62.2672 18.5283ZM99.9857 18.5283C98.7286 18.5283 97.6616 18.0864 96.8023 17.2164C96.8022 17.2163 96.8022 17.2162 96.8021 17.2161C96.802 17.216 96.8019 17.2159 96.8018 17.2158C95.9414 16.3551 95.5144 15.2644 95.5144 13.987C95.5144 12.7097 95.9414 11.619 96.8018 10.7583C96.8019 10.7582 96.8019 10.7582 96.8021 10.758L96.8023 10.7577C97.6616 9.8875 98.7286 9.44579 99.9857 9.44579C101.24 9.44579 102.308 9.88761 103.167 10.7709C104.028 11.6314 104.455 12.7201 104.455 13.987C104.455 15.2644 104.028 16.3551 103.167 17.2158L103.167 17.2161C102.307 18.0868 101.23 18.5283 99.9857 18.5283L99.9857 18.5283ZM67.7934 18.3402V9.63394H67.9334H72.993V10.9508H69.1562V13.3417H72.6168V14.6324H69.1562V17.0255H72.993V18.3402H67.7934ZM76.1753 18.3402V10.9508H73.8216V9.63394H79.8919V10.9508H79.7519H77.5381V18.3402H76.1753ZM83.7714 18.3402V9.63394H85.1342V9.77394V18.3402H83.7714ZM88.5648 18.3402V10.9508H86.211V9.63394H92.2813V10.9508H92.1413H89.9276V18.3402H88.5648ZM105.664 18.3402V9.63394H107.201L111.112 15.8951L111.079 14.7065V9.63394H112.441V18.3402H111.093L106.994 11.7626L107.027 12.9505V12.9524V18.3402H105.664ZM99.9857 17.2136C100.87 17.2136 101.591 16.9121 102.18 16.3028L102.181 16.3017L102.181 16.3008C102.778 15.704 103.07 14.9357 103.07 13.987C103.07 13.0406 102.778 12.2697 102.181 11.6732L102.181 11.6723L102.18 11.6715C101.592 11.0623 100.87 10.7626 99.9857 10.7626C99.0999 10.7626 98.3784 11.0618 97.7791 11.671L97.7785 11.6715C97.1929 12.2826 96.9013 13.0409 96.9013 13.987C96.9013 14.9354 97.1928 15.6913 97.7785 16.3025L97.7791 16.303C98.3785 16.9123 99.1002 17.2136 99.9857 17.2136V17.2136Z" fill="white"/>
<path d="M29.0067 27.1924L14.1016 43.0124C14.1021 43.0157 14.1032 43.0185 14.1038 43.0217C14.5609 44.7395 16.1299 46.0044 17.992 46.0044C18.7364 46.0044 19.4353 45.8031 20.0346 45.4499L20.0822 45.422L36.8598 35.7407L29.0067 27.1924Z" fill="#EA4335"/>
<path d="M44.0821 24.4988L44.0678 24.489L36.8245 20.29L28.6641 27.5515L36.8529 35.7393L44.058 31.582C45.3213 30.9 46.1788 29.5683 46.1788 28.0327C46.1788 26.5081 45.3327 25.183 44.0821 24.4988Z" fill="#FBBC04"/>
<path d="M14.0976 12.987C14.008 13.3174 13.9609 13.6635 13.9609 14.0229V41.9775C13.9609 42.3362 14.0075 42.6835 14.0982 43.0127L29.5163 27.5974L14.0976 12.987Z" fill="#4285F4"/>
<path d="M29.1093 27.9995L36.8241 20.2869L20.0656 10.5706C19.4564 10.2058 18.7455 9.99523 17.9848 9.99523C16.1226 9.99523 14.5515 11.2624 14.0943 12.9823C14.0937 12.984 14.0938 12.9851 14.0938 12.9866L29.1093 27.9995Z" fill="#34A853"/>
</svg>
